<?xml version="1.0" encoding="utf-8"?>
<!-- Generator: Adobe Illustrator 24.1.1, SVG Export Plug-In . SVG Version: 6.00 Build 0)  -->
<svg version="1.1" id="Layer_1" xmlns="http://www.w3.org/2000/svg" xmlns:xlink="http://www.w3.org/1999/xlink" x="0px" y="0px"
	 viewBox="0 0 512 512" style="enable-background:new 0 0 512 512;" xml:space="preserve">
<g>
	<path d="M436.8,75.2C390.5,28.8,326.4,0,255.6,0C114.5,0,0,114.5,0,255.6c0,70.8,28.8,134.8,75.2,181.1
		c46.3,46.5,110.4,75.2,181.1,75.2C397.5,512,512,397.5,512,256.4C512,185.6,483.2,121.5,436.8,75.2z M256,475.1
		c-120.8,0-219.1-98.3-219.1-219.1S135.2,36.9,256,36.9S475.1,135.2,475.1,256S376.8,475.1,256,475.1z"/>
	<path d="M406.5,195.9c-81.3-48.3-210-52.8-287.4-29.3c-8.5,2.6-14.6,10.4-14.6,19.6c0,11.3,9.2,20.5,20.5,20.5l6.1-0.9l-0.1,0
		c67.4-20.5,183.9-16.6,254.6,25.3c3,1.8,6.6,2.9,10.5,2.9c11.3,0,20.5-9.2,20.5-20.5C416.6,206.1,412.6,199.5,406.5,195.9
		L406.5,195.9L406.5,195.9z"/>
	<path d="M351.9,334.1c-57.8-35.3-129.3-43.5-212.8-24.4c-6.1,1.4-10.6,6.9-10.6,13.3c0,7.5,6.1,13.7,13.7,13.7l3.1-0.4l-0.1,0
		c76.3-17.4,141-10.3,192.5,21.1c2,1.3,4.5,2,7.2,2c7.5,0,13.7-6.1,13.7-13.7C358.5,340.9,355.9,336.6,351.9,334.1L351.9,334.1z"/>
	<path d="M377.7,269.8c-67.6-41.6-166.5-53.3-246.1-29.1c-7.1,2.2-12.1,8.7-12.1,16.3c0,9.4,7.6,17.1,17.1,17.1l5.1-0.8l-0.1,0
		c69.7-21.2,159.4-10.7,218.3,25.5c2.5,1.6,5.6,2.5,8.9,2.5c6.1,0,11.5-3.2,14.5-8.1l0-0.1c1.6-2.5,2.5-5.6,2.5-8.9
		C385.9,278.2,382.6,272.8,377.7,269.8L377.7,269.8L377.7,269.8z"/>
</g>
</svg>
