<?xml version="1.0" encoding="utf-8"?>
<!-- Generator: Adobe Illustrator 24.1.1, SVG Export Plug-In . SVG Version: 6.00 Build 0)  -->
<svg version="1.1" id="Layer_1" xmlns="http://www.w3.org/2000/svg" xmlns:xlink="http://www.w3.org/1999/xlink" x="0px" y="0px"
	 viewBox="0 0 512 512" style="enable-background:new 0 0 512 512;" xml:space="preserve">
<g>
	<path d="M256,0C115.1,0,0,115.1,0,256s115.1,256,256,256s256-115.1,256-256S398.1,0,256,0z M373.8,369.9
		c-5.1,7.7-14.1,10.2-21.8,5.1c-60.2-37.1-135.7-44.8-225.3-24.3c-8.9,2.6-16.6-3.8-19.2-11.5c-2.5-8.9,3.8-16.6,11.5-19.1
		c97.3-21.8,181.8-12.9,248.3,28.2C376.3,352,377.6,362.2,373.8,369.9L373.8,369.9z M404.5,299.5c-6.4,9-17.9,12.8-26.9,6.4
		c-69.1-42.3-174.1-55-254.7-29.4c-10.3,2.5-21.8-2.6-24.3-12.8c-2.6-10.2,2.5-21.7,12.8-24.3c93.5-28.2,208.7-14,288,34.6
		C407.1,277.7,410.9,290.6,404.5,299.5L404.5,299.5z M407.1,227.8c-82-48.7-218.9-53.8-297-29.4c-12.8,3.8-25.6-3.8-29.4-15.4
		c-3.8-12.8,3.8-25.6,15.3-29.4c90.9-26.9,240.7-21.8,335.4,34.6c11.5,6.4,15.3,21.8,8.9,33.3C433.9,230.4,418.6,234.2,407.1,227.8
		L407.1,227.8z"/>
</g>
</svg>
